<?xml version="1.0" encoding="UTF-8"?>
<svg width="200" height="200" viewBox="0 0 200 200" xmlns="http://www.w3.org/2000/svg">
<path d="m106.68 18.77l3.29 0.33 3.25 0.47 3.2 0.59 3.16 0.71 3.12 0.83 3.06 0.95 3.01 1.07 2.95 1.18 2.9 1.3 2.83 1.4 2.77 1.5 2.71 1.61 2.64 1.71 2.56 1.8 2.49 1.91 2.42 1.99 2.33 2.08 2.26 2.17 2.17 2.25 2.08 2.34 1.99 2.41 1.9 2.5 1.81 2.56 1.71 2.64 1.61 2.7 1.5 2.78 1.4 2.83 1.29 2.9 1.19 2.95 1.06 3.01 0.96 3.06 0.83 3.11 0.71 3.16 0.59 3.21 0.47 3.25 0.33 3.28 0.2 3.33 0.07 3.36-0.07 3.36-0.2 3.32-0.33 3.29-0.47 3.25-0.59 3.2-0.71 3.16-0.83 3.12-0.96 3.06-1.06 3.01-1.19 2.95-1.29 2.9-1.4 2.83-1.5 2.77-1.61 2.71-1.71 2.64-1.81 2.56-1.9 2.49-1.99 2.42-2.08 2.33-2.17 2.26-2.26 2.17-2.33 2.08-2.42 1.99-2.49 1.9-2.56 1.81-2.64 1.71-2.71 1.61-2.77 1.5-2.83 1.4-2.9 1.29-2.95 1.19-3.01 1.06-3.06 0.96-3.12 0.83-3.16 0.71-3.2 0.59-3.25 0.47-3.29 0.33-3.32 0.2-3.36 0.07-3.36-0.07-3.33-0.2-3.28-0.33-3.25-0.47-3.21-0.59-3.16-0.71-3.11-0.83-3.06-0.96-3.01-1.06-2.95-1.19-2.9-1.29-2.83-1.4-2.78-1.5-2.7-1.61-2.64-1.71-2.56-1.81-2.5-1.9-2.41-1.99-2.34-2.08-2.25-2.17-2.17-2.26-2.08-2.33-1.99-2.42-1.91-2.49-1.8-2.56-1.71-2.64-1.61-2.71-1.5-2.77-1.4-2.83-1.3-2.9-1.18-2.95-1.07-3.01-0.95-3.06-0.83-3.12-0.71-3.16-0.59-3.2-0.47-3.25-0.33-3.29-0.2-3.32-0.07-3.36 0.07-3.36 0.2-3.33 0.33-3.28 0.47-3.25 0.59-3.21 0.71-3.16 0.83-3.11 0.95-3.06 1.07-3.01 1.18-2.95 1.3-2.9 1.4-2.83 1.5-2.78 1.61-2.7 1.71-2.64 1.8-2.56 1.91-2.5 1.99-2.41 2.08-2.34 2.17-2.25 2.25-2.17 2.34-2.08 2.41-1.99 2.5-1.91 2.56-1.8 2.64-1.71 2.7-1.61 2.78-1.5 2.83-1.4 2.9-1.3 2.95-1.18 3.01-1.07 3.06-0.95 3.11-0.83 3.16-0.71 3.21-0.59 3.25-0.47 3.28-0.33 3.33-0.2 3.36-0.07 3.36 0.07 3.32 0.2zm-12.42 11.46l-2.83 0.29-2.79 0.4-2.75 0.5-2.71 0.62-2.68 0.71-2.63 0.82-2.58 0.92-2.54 1.01-2.49 1.11-2.43 1.21-2.38 1.29-2.33 1.38-2.26 1.47-2.2 1.55-2.14 1.63-2.08 1.71-2 1.79-1.94 1.86-1.86 1.94-1.79 2.01-1.71 2.07-1.64 2.14-1.55 2.2-1.46 2.27-1.39 2.32-1.29 2.38-1.2 2.44-1.11 2.48-1.02 2.54-0.91 2.59-0.82 2.63-0.72 2.67-0.61 2.71-0.51 2.76-0.39 2.79-0.29 2.82-0.17 2.86-0.06 2.88 0.06 2.89 0.17 2.85 0.29 2.83 0.39 2.79 0.51 2.75 0.61 2.71 0.72 2.68 0.82 2.63 0.91 2.58 1.02 2.54 1.11 2.49 1.2 2.43 1.29 2.38 1.39 2.32 1.46 2.27 1.55 2.2 1.64 2.14 1.71 2.08 1.79 2 1.86 1.94 1.94 1.86 2 1.79 2.08 1.71 2.14 1.64 2.2 1.55 2.26 1.46 2.33 1.38 2.38 1.3 2.43 1.2 2.49 1.11 2.54 1.01 2.58 0.92 2.63 0.82 2.68 0.72 2.71 0.61 2.75 0.5 2.79 0.4 2.83 0.29 2.85 0.17 2.89 0.06 2.88-0.06 2.86-0.17 2.82-0.29 2.79-0.4 2.76-0.5 2.71-0.62 2.67-0.71 2.63-0.82 2.59-0.92 2.54-1.01 2.48-1.11 2.44-1.21 2.38-1.29 2.32-1.38 2.27-1.47 2.2-1.55 2.14-1.63 2.07-1.71 2.01-1.79 1.94-1.86 1.86-1.94 1.79-2.01 1.71-2.07 1.63-2.14 1.55-2.2 1.47-2.27 1.38-2.32 1.29-2.38 1.21-2.44 1.11-2.48 1.01-2.54 0.92-2.59 0.82-2.63 0.71-2.67 0.62-2.71 0.5-2.76 0.4-2.79 0.29-2.82 0.17-2.86 0.06-2.88-0.06-2.89-0.17-2.85-0.29-2.83-0.4-2.79-0.5-2.75-0.62-2.71-0.71-2.68-0.82-2.63-0.92-2.58-1.01-2.54-1.11-2.48-1.21-2.44-1.29-2.38-1.38-2.32-1.47-2.27-1.55-2.2-1.63-2.14-1.71-2.08-1.79-2-1.87-1.94-1.93-1.86-2.01-1.79-2.07-1.71-2.14-1.63-2.21-1.55-2.26-1.47-2.32-1.38-2.38-1.3-2.44-1.2-2.49-1.11-2.53-1.01-2.59-0.92-2.63-0.82-2.67-0.71-2.71-0.62-2.76-0.5-2.79-0.4-2.82-0.29-2.86-0.17-2.88-0.06-2.89 0.06-2.85 0.17z"/>
<path d="m86.32 46.26l38.53 50.23v-50.19h18.04v73.71 33.73l-79.82-107.48h23.25z"/>
<path d="m113.68 153.74l-38.53-50.23v50.19h-18.04v-73.71-33.73l79.82 107.48h-23.25z"/>
</svg>